<svg width="45" height="20" viewBox="0 0 45 20" fill="none" xmlns="http://www.w3.org/2000/svg">
<path d="M30.2324 14.5078V16.5458H42.5112L42.8762 19.5164H44.4028V14.5078H30.2324Z" fill="white"/>
<path d="M42.1461 12.8153V0.621826H39.9227V10.7773H32.4891V0.621826H30.2324V12.8153H31.7922H40.9514H42.1461Z" fill="white"/>
<path d="M27.1464 7.63392V0.621826H24.8897V3.62701V4.49057V5.59592H16.9583V4.49057V3.62701V0.621826H14.7349V7.63392H16.5933H16.9583H24.8897H25.7526H27.1464Z" fill="white"/>
<path d="M27.1464 16.5459V9.29199H25.7526H24.8897H16.9583H16.5933H14.7349V16.5459H16.9583V13.2989V12.4008V11.3645H24.8897V12.4008V13.2989V16.5459H27.1464Z" fill="white"/>
<path d="M12.0793 7.63389C12.013 6.59762 11.8139 5.69952 11.5484 4.90504C11.1501 3.83423 10.6192 2.97067 9.95545 2.27983C9.29174 1.58898 8.49528 1.10539 7.59926 0.794509C6.70324 0.483628 5.74085 0.345459 4.67891 0.345459C3.81607 0.345459 3.01961 0.414544 2.25634 0.587255C1.49306 0.759967 0.862534 1.00176 0.364746 1.2781L0.89572 3.14339C1.26076 2.97067 1.75855 2.76342 2.3559 2.62525C2.95324 2.45254 3.65014 2.38346 4.4466 2.418C5.93997 2.418 7.13466 2.86705 8.09705 3.73061C8.62802 4.2142 9.02625 4.83596 9.29174 5.63043H2.92006V7.66843H9.75634H12.0793V7.63389Z" fill="white"/>
<path d="M10.5533 9.29199H2.92053V11.33H9.35858C9.29221 11.5027 9.22584 11.6754 9.15946 11.8481C8.96035 12.2281 8.76123 12.5735 8.52893 12.8844C8.23026 13.2644 7.8984 13.6098 7.53336 13.8516C7.13513 14.1279 6.70371 14.3352 6.23911 14.4733C5.60858 14.6806 4.97805 14.7497 4.34752 14.7497C3.65061 14.7497 3.02008 14.6806 2.42274 14.577C1.82539 14.4733 1.32761 14.3006 0.962562 14.1279L0.332031 16.2005C0.763447 16.3732 1.29442 16.5113 1.95814 16.6495C2.62185 16.7877 3.35194 16.8568 4.1484 16.8568C5.17716 16.8568 6.17274 16.7186 7.13513 16.4077C8.09752 16.0968 8.96035 15.6132 9.69044 14.9569C10.4205 14.2661 11.0179 13.4025 11.4825 12.3317C11.8475 11.4682 12.0466 10.4664 12.113 9.32653H10.5533V9.29199Z" fill="white"/>
</svg>
